<ttFont>
<head>
    <tableVersion value="1.0"/>
    <fontRevision value="1.0"/>
    <checkSumAdjustment value="0x640cdb2f"/>
    <magicNumber value="0x5f0f3cf5"/>
    <flags value="00000000 00000011"/>
    <unitsPerEm value="50"/>
    <created value="Thu Feb 22 10:04:28 2018"/>
    <macStyle value="00000000 00000000"/>
    <lowestRecPPEM value="7"/>
    <fontDirectionHint value="2"/>
    <glyphDataFormat value="0"/>
  </head>
    <TTGlyph name="a" xMin="0" yMin="0" xMax="50" yMax="50">
      <contour>
        <pt x="0" y="0" on="1"/>
        <pt x="50" y="25" on="1"/>
        <pt x="0" y="50" on="1"/>
      </contour>
    </TTGlyph>
    <TTGlyph name="b" xMin="0" yMin="0" xMax="50" yMax="50">
      <contour>
        <pt x="0" y="0" on="1"/>
        <pt x="50" y="25" on="1"/>
        <pt x="0" y="50" on="1"/>
      </contour>
    </TTGlyph>
    <TTGlyph name="c" xMin="0" yMin="0" xMax="50" yMax="50">
      <contour>
        <pt x="0" y="0" on="1"/>
        <pt x="50" y="25" on="1"/>
        <pt x="0" y="50" on="1"/>
      </contour>
    </TTGlyph>
    <TTGlyph name="d" xMin="0" yMin="0" xMax="50" yMax="50">
      <contour>
        <pt x="0" y="0" on="1"/>
        <pt x="50" y="25" on="1"/>
        <pt x="0" y="50" on="1"/>
      </contour>
    </TTGlyph>
    <TTGlyph name="e" xMin="0" yMin="0" xMax="50" yMax="50">
      <contour>
        <pt x="0" y="0" on="1"/>
        <pt x="50" y="25" on="1"/>
        <pt x="0" y="50" on="1"/>
      </contour>
    </TTGlyph>
    <TTGlyph name="f" xMin="0" yMin="0" xMax="50" yMax="50">
      <contour>
        <pt x="0" y="0" on="1"/>
        <pt x="50" y="25" on="1"/>
        <pt x="0" y="50" on="1"/>
      </contour>
    </TTGlyph>
    <TTGlyph name="g" xMin="0" yMin="0" xMax="50" yMax="50">
      <contour>
        <pt x="0" y="0" on="1"/>
        <pt x="50" y="25" on="1"/>
        <pt x="0" y="50" on="1"/>
      </contour>
    </TTGlyph>
    <TTGlyph name="h" xMin="0" yMin="0" xMax="50" yMax="50">
      <contour>
        <pt x="0" y="0" on="1"/>
        <pt x="50" y="25" on="1"/>
        <pt x="0" y="50" on="1"/>
      </contour>
    </TTGlyph>
    <TTGlyph name="i" xMin="0" yMin="0" xMax="50" yMax="50">
      <contour>
        <pt x="0" y="0" on="1"/>
        <pt x="50" y="25" on="1"/>
        <pt x="0" y="50" on="1"/>
      </contour>
    </TTGlyph>
    <TTGlyph name="j" xMin="0" yMin="0" xMax="50" yMax="50">
      <contour>
        <pt x="0" y="0" on="1"/>
        <pt x="50" y="25" on="1"/>
        <pt x="0" y="50" on="1"/>
      </contour>
    </TTGlyph>
    <TTGlyph name="k" xMin="0" yMin="0" xMax="50" yMax="50">
      <contour>
        <pt x="0" y="0" on="1"/>
        <pt x="50" y="25" on="1"/>
        <pt x="0" y="50" on="1"/>
      </contour>
    </TTGlyph>
    <TTGlyph name="l" xMin="0" yMin="0" xMax="50" yMax="50">
      <contour>
        <pt x="0" y="0" on="1"/>
        <pt x="50" y="25" on="1"/>
        <pt x="0" y="50" on="1"/>
      </contour>
    </TTGlyph>
    <TTGlyph name="m" xMin="0" yMin="0" xMax="50" yMax="50">
      <contour>
        <pt x="0" y="0" on="1"/>
        <pt x="50" y="25" on="1"/>
        <pt x="0" y="50" on="1"/>
      </contour>
    </TTGlyph>
    <TTGlyph name="n" xMin="0" yMin="0" xMax="50" yMax="50">
      <contour>
        <pt x="0" y="0" on="1"/>
        <pt x="50" y="25" on="1"/>
        <pt x="0" y="50" on="1"/>
      </contour>
    </TTGlyph>
    <TTGlyph name="o" xMin="0" yMin="0" xMax="50" yMax="50">
      <contour>
        <pt x="0" y="0" on="1"/>
        <pt x="50" y="25" on="1"/>
        <pt x="0" y="50" on="1"/>
      </contour>
    </TTGlyph>
    <TTGlyph name="p" xMin="0" yMin="0" xMax="50" yMax="50">
      <contour>
        <pt x="0" y="0" on="1"/>
        <pt x="50" y="25" on="1"/>
        <pt x="0" y="50" on="1"/>
      </contour>
    </TTGlyph>
    <TTGlyph name="q" xMin="0" yMin="0" xMax="50" yMax="50">
      <contour>
        <pt x="0" y="0" on="1"/>
        <pt x="50" y="25" on="1"/>
        <pt x="0" y="50" on="1"/>
      </contour>
    </TTGlyph>
    <TTGlyph name="r" xMin="0" yMin="0" xMax="50" yMax="50">
      <contour>
        <pt x="0" y="0" on="1"/>
        <pt x="50" y="25" on="1"/>
        <pt x="0" y="50" on="1"/>
      </contour>
    </TTGlyph>
    <TTGlyph name="s" xMin="0" yMin="0" xMax="50" yMax="50">
      <contour>
        <pt x="0" y="0" on="1"/>
        <pt x="50" y="25" on="1"/>
        <pt x="0" y="50" on="1"/>
      </contour>
    </TTGlyph>
    <TTGlyph name="t" xMin="0" yMin="0" xMax="50" yMax="50">
      <contour>
        <pt x="0" y="0" on="1"/>
        <pt x="50" y="25" on="1"/>
        <pt x="0" y="50" on="1"/>
      </contour>
    </TTGlyph>
    <TTGlyph name="u" xMin="0" yMin="0" xMax="50" yMax="50">
      <contour>
        <pt x="0" y="0" on="1"/>
        <pt x="50" y="25" on="1"/>
        <pt x="0" y="50" on="1"/>
      </contour>
    </TTGlyph>
    <TTGlyph name="v" xMin="0" yMin="0" xMax="50" yMax="50">
      <contour>
        <pt x="0" y="0" on="1"/>
        <pt x="50" y="25" on="1"/>
        <pt x="0" y="50" on="1"/>
      </contour>
    </TTGlyph>
    <TTGlyph name="w" xMin="0" yMin="0" xMax="50" yMax="50">
      <contour>
        <pt x="0" y="0" on="1"/>
        <pt x="50" y="25" on="1"/>
        <pt x="0" y="50" on="1"/>
      </contour>
    </TTGlyph>
    <TTGlyph name="x" xMin="0" yMin="0" xMax="50" yMax="50">
      <contour>
        <pt x="0" y="0" on="1"/>
        <pt x="50" y="25" on="1"/>
        <pt x="0" y="50" on="1"/>
      </contour>
    </TTGlyph>
    <TTGlyph name="y" xMin="0" yMin="0" xMax="50" yMax="50">
      <contour>
        <pt x="0" y="0" on="1"/>
        <pt x="50" y="25" on="1"/>
        <pt x="0" y="50" on="1"/>
      </contour>
    </TTGlyph>
    <TTGlyph name="z" xMin="0" yMin="0" xMax="50" yMax="50">
      <contour>
        <pt x="0" y="0" on="1"/>
        <pt x="50" y="25" on="1"/>
        <pt x="0" y="50" on="1"/>
      </contour>
    </TTGlyph>
</ttFont>
